<?xml version="1.0" encoding="UTF-8" standalone="no"?>
<!-- Created with Inkscape (http://www.inkscape.org/) -->

<svg
   width="210mm"
   height="297mm"
   viewBox="0 0 210 297"
   version="1.1"
   id="svg5"
   inkscape:version="1.1 (c68e22c387, 2021-05-23)"
   sodipodi:docname="Fussgelenksolo.svg"
   xmlns:inkscape="http://www.inkscape.org/namespaces/inkscape"
   xmlns:sodipodi="http://sodipodi.sourceforge.net/DTD/sodipodi-0.dtd"
   xmlns="http://www.w3.org/2000/svg"
   xmlns:svg="http://www.w3.org/2000/svg">
  <sodipodi:namedview
     id="namedview7"
     pagecolor="#ffffff"
     bordercolor="#666666"
     borderopacity="1.0"
     inkscape:pageshadow="2"
     inkscape:pageopacity="0.0"
     inkscape:pagecheckerboard="0"
     inkscape:document-units="mm"
     showgrid="false"
     inkscape:zoom="3.7594114"
     inkscape:cx="78.203732"
     inkscape:cy="1025.5595"
     inkscape:window-width="1920"
     inkscape:window-height="1017"
     inkscape:window-x="-8"
     inkscape:window-y="-8"
     inkscape:window-maximized="1"
     inkscape:current-layer="layer1" />
  <defs
     id="defs2" />
  <g
     inkscape:label="Ebene 1"
     inkscape:groupmode="layer"
     id="layer1">
    <path
       id="path956"
       style="fill:#000000;fill-opacity:1;stroke:#000000;stroke-width:0.166669;stroke-miterlimit:4;stroke-dasharray:none"
       d="m 19.729081,275.46455 -0.01601,-2.81585 c -3.44e-4,-0.0595 -0.0458,-0.108 -0.101283,-0.108 h -2.927482 v -4.48551 c 0,-0.0595 -0.04527,-0.10801 -0.10078,-0.10801 h -1.614884 c -0.100991,0 -0.128984,0.10806 -0.130228,0 l -0.03513,-3.13417 c -6.61e-4,-0.0595 -0.02191,-0.10801 -0.0775,-0.10801 h -2.567808 c -0.05551,0 -0.112659,0.0486 -0.112659,0.10801 v 3.13417 c 0,0.10807 -0.111946,0.0123 -0.212911,0.0119 l -2.9207353,-0.0119 c -0.100991,-4.1e-4 -0.129328,0.10808 -0.129725,0 l -0.01188,-3.13417 c -2.38e-4,-0.0595 -0.06906,-0.11986 -0.124539,-0.11989 l -2.449989,-5.2e-4 c -0.05548,-2e-5 -0.171556,0.0486 -0.171556,0.108 l -5.29e-4,3.12229 c 0,0.10808 -0.09959,0.0117 -0.200501,0.0124 l -1.756992,0.0119 c -0.05551,3.9e-4 -0.10078,0.0486 -0.10078,0.10801 l 5.29e-4,0.002 v 4.48499 h -2.927482 c -0.05548,0 -0.10128304,0.0491 -0.10128304,0.10852 v 2.74971 c 0,0.0595 0.10128304,0.108 0.10128304,0.108 l 2.960555,0.0165 c -9.79e-4,0.15188 -0.0017,3.48122 -0.03307,3.48144 l -2.927482,0.0207 c -0.05548,4e-4 -0.10075404,0.0486 -0.10075404,0.108 v 2.80552 c 0,0.0595 0.04516,0.0251 0.10075404,0.0253 l 2.927482,0.0119 c 0.100992,4.4e-4 0.05908,0.0573 0.05786,0.16537 l -0.03461,3.16776 c -10e-4,0.10808 0.01884,0.18914 -0.08218,0.18914 h -2.892319 c -0.05551,0 -0.07731,0.0367 -0.07699,0.0961 l 0.01138,2.9471 c 2.11e-4,0.0595 0.03326,10e-4 0.08887,0.002 l 2.915576,0.0119 c 0.100992,4.1e-4 0.04704,0.10433 0.04755,0.21239 l 0.01498,4.48551 c 2.12e-4,0.0595 -0.06014,0.10681 0.05117,0.108 l 1.756489,0.0186 c 0.100991,0.001 0.192352,0.0149 0.19222,0.12299 l -0.0036,3.20445 c -7.9e-5,0.0595 0.15166,0.0961 0.207222,0.0961 l 2.366777,5.2e-4 c 0.05548,2e-5 0.10168,-0.0486 0.101283,-0.108 l -0.02376,-3.17552 c -8.2e-4,-0.10808 0.0052,-0.12822 0.106442,-0.12919 l 3.1450233,-0.0305 c 0.100991,-9.9e-4 0.165364,0.13177 0.165364,0.13177 l 0.01188,3.19102 c 2.38e-4,0.0595 -0.06792,0.10645 0.207222,0.10801 l 2.284624,0.0129 c 0.05551,3.3e-4 0.171371,-0.0368 0.171556,-0.0961 l 0.01191,-3.13728 c 3.97e-4,-0.10809 0.100065,-0.16694 0.201004,-0.16795 l 1.614884,-0.0171 c 0.05551,-5.8e-4 0.10078,0.0268 0.10078,-0.0326 v -4.71082 c 0,-0.10807 -0.100991,-0.10005 0,-0.10025 l 2.927482,-0.009 c 0.05548,-1.5e-4 0.101283,-0.0402 0.101283,-0.0997 v -2.81637 c 0,-0.0595 -0.04569,-0.0995 -0.101283,-0.0997 l -2.927482,-0.009 v -3.38532 c 0,-0.10808 -0.100991,-0.12476 0,-0.12506 l 2.927482,-0.009 c 0.05548,-1.5e-4 0.101283,-0.0652 0.101283,-0.12454 v -2.73316 c 0,-0.0595 -0.04569,-0.0744 -0.101283,-0.0744 h -2.927482 v -3.41891 c 0,-0.0496 -0.101415,-0.0824 -5.03e-4,-0.0832 l 2.943993,-0.0253 c 0.05551,-4.8e-4 0.101653,-0.006 0.101282,-0.0661 z m -6.479196,5.28443 c 0,0.5594 -0.160734,1.10687 -0.463021,1.57614 -0.30226,0.47059 -0.732684,0.84443 -1.241769,1.07642 -0.509084,0.23197 -1.073943,0.31413 -1.6267903,0.23461 -0.554117,-0.0795 -1.072621,-0.31678 -1.495505,-0.68265 -0.42156,-0.36719 -0.730593,-0.84682 -0.888312,-1.38234 -0.157797,-0.5369 -0.157797,-1.10698 0,-1.64383 0.157719,-0.53555 0.466752,-1.01567 0.888312,-1.38286 0.422884,-0.36587 0.941388,-0.60313 1.495505,-0.68265 0.5528473,-0.0795 1.1177063,0.003 1.6267903,0.23461 0.509085,0.23198 0.939509,0.60583 1.241769,1.07642 0.302287,0.46927 0.463021,1.01672 0.463021,1.57613 z" />
  </g>
</svg>
