<?xml version="1.0" encoding="UTF-8" standalone="no"?>
<svg
   width="121.880mm"
   height="277.199mm"
   viewBox="18.900002 -34.609493 121.879601 277.198822"
   version="1.1"
   id="svg2395"
   sodipodi:docname="Schuhgelenk.svg"
   inkscape:version="1.1 (c68e22c387, 2021-05-23)"
   xmlns:inkscape="http://www.inkscape.org/namespaces/inkscape"
   xmlns:sodipodi="http://sodipodi.sourceforge.net/DTD/sodipodi-0.dtd"
   xmlns="http://www.w3.org/2000/svg"
   xmlns:svg="http://www.w3.org/2000/svg">
  <defs
     id="defs2399" />
  <sodipodi:namedview
     id="namedview2397"
     pagecolor="#ffffff"
     bordercolor="#666666"
     borderopacity="1.0"
     inkscape:pageshadow="2"
     inkscape:pageopacity="0.0"
     inkscape:pagecheckerboard="0"
     inkscape:document-units="mm"
     showgrid="false"
     inkscape:zoom="2.0139776"
     inkscape:cx="117.18104"
     inkscape:cy="962.02659"
     inkscape:window-width="1920"
     inkscape:window-height="1017"
     inkscape:window-x="-8"
     inkscape:window-y="-8"
     inkscape:window-maximized="1"
     inkscape:current-layer="svg2395" />
  <path
     id="path2387"
     style="fill:#000000;fill-opacity:1;stroke:#000000;stroke-width:0.0653674mm"
     d="m 35.053619,205.39112 c -0.03895,-0.0388 -0.102592,-0.0383 -0.141412,6.3e-4 l -10.586692,10.62589 c -0.01906,0.0191 -0.02917,0.0448 -0.02983,0.071 l 0.03885,21.21295 c 7.43e-4,0.0262 0.01097,0.0518 0.03009,0.0708 l 7.084053,7.05791 c 0.03897,0.0388 0.102953,0.0387 0.141777,-2.6e-4 l 0.988054,-0.99171 2.054086,2.04651 c 0.03897,0.0388 0.102598,0.0391 0.141422,9e-5 l 2.117622,-2.12546 c 0.03882,-0.039 0.03835,-0.1026 -6.18e-4,-0.14142 l -2.054086,-2.04651 1.976482,-1.9838 2.054086,2.04651 c 0.03897,0.0388 0.10258,0.0391 0.141404,1.1e-4 l 2.117267,-2.12511 c 0.03882,-0.039 0.03871,-0.10295 -2.64e-4,-0.14178 l -2.054085,-2.0465 1.976116,-1.98344 2.054085,2.04651 c 0.03897,0.0388 0.102952,0.0387 0.141778,-2.6e-4 l 2.117265,-2.12511 c 0.03882,-0.039 0.03871,-0.10295 -2.62e-4,-0.14177 l -2.054085,-2.04651 1.976114,-1.98343 2.054085,2.0465 c 0.03897,0.0388 0.10296,0.0387 0.14178,-2.6e-4 l 2.117265,-2.1251 c 0.03882,-0.039 0.03834,-0.10259 -6.28e-4,-0.14142 l -2.054085,-2.0465 1.97648,-1.9838 2.054085,2.0465 c 0.03897,0.0388 0.102588,0.0391 0.141414,1.1e-4 l 2.117629,-2.12547 c 0.03882,-0.039 0.03834,-0.10259 -6.26e-4,-0.14142 l -2.054085,-2.0465 0.988056,-0.99172 c 0.03882,-0.039 0.03871,-0.10295 -2.62e-4,-0.14178 z m 1.98487,11.25565 c 0.390811,0.38937 0.661658,0.88256 0.779116,1.42036 0.118363,0.53873 0.07943,1.10001 -0.112846,1.61714 -0.192329,0.51706 -0.527766,0.96885 -0.968121,1.29972 -0.441283,0.33178 -0.967976,0.52875 -1.517948,0.56955 -0.549959,0.0389 -1.100349,-0.0795 -1.584309,-0.34202 -0.484878,-0.26347 -0.882772,-0.6599 -1.148033,-1.1438 -0.264336,-0.48296 -0.384784,-1.03293 -0.347872,-1.58303 0.03876,-0.55012 0.233781,-1.07754 0.563938,-1.52004 0.32923,-0.44158 0.779716,-0.77874 1.296131,-0.97292 0.516411,-0.19418 1.077551,-0.2352 1.616711,-0.11883 0.538214,0.11546 1.03242,0.3845 1.423233,0.77387 z" />
</svg>
