<?xml version="1.0" encoding="UTF-8" standalone="no"?>
<!-- Created with Inkscape (http://www.inkscape.org/) -->

<svg
   width="210mm"
   height="297mm"
   viewBox="0 0 210 297"
   version="1.1"
   id="svg5"
   inkscape:version="1.1 (c68e22c387, 2021-05-23)"
   sodipodi:docname="Fussgelenksolo.svg"
   xmlns:inkscape="http://www.inkscape.org/namespaces/inkscape"
   xmlns:sodipodi="http://sodipodi.sourceforge.net/DTD/sodipodi-0.dtd"
   xmlns="http://www.w3.org/2000/svg"
   xmlns:svg="http://www.w3.org/2000/svg">
  <sodipodi:namedview
     id="namedview7"
     pagecolor="#ffffff"
     bordercolor="#666666"
     borderopacity="1.0"
     inkscape:pageshadow="2"
     inkscape:pageopacity="0.0"
     inkscape:pagecheckerboard="0"
     inkscape:document-units="mm"
     showgrid="false"
     inkscape:zoom="0.46992642"
     inkscape:cx="331.96686"
     inkscape:cy="586.26199"
     inkscape:window-width="1920"
     inkscape:window-height="1017"
     inkscape:window-x="-8"
     inkscape:window-y="-8"
     inkscape:window-maximized="1"
     inkscape:current-layer="layer1" />
  <defs
     id="defs2" />
  <g
     inkscape:label="Ebene 1"
     inkscape:groupmode="layer"
     id="layer1">
    <path
       style="fill:none;stroke:#000000;stroke-width:0.0794932mm"
       d="m 19.481719,279.29049 c 0.67127,0 1.328252,0.19249 1.891369,0.55521 0.564708,0.36272 1.013292,0.87972 1.291677,1.4906 0.278368,0.61087 0.376975,1.28855 0.28155,1.95193 -0.09546,0.66494 -0.380189,1.28696 -0.819228,1.79441 -0.440629,0.50585 -1.016474,0.87653 -1.659106,1.06581 -0.644271,0.18934 -1.328268,0.18934 -1.972492,0 -0.642664,-0.18928 -1.218492,-0.55996 -1.659122,-1.06581 -0.439039,-0.50745 -0.723787,-1.12947 -0.819212,-1.79441 -0.09546,-0.66338 0.0032,-1.34106 0.28155,-1.95193 0.278369,-0.61088 0.726969,-1.12788 1.291677,-1.4906 0.563117,-0.36272 1.220084,-0.55521 1.891385,-0.55521 z"
       id="path956" />
    <path
       style="fill:none;stroke:#000000;stroke-width:0.0504915mm"
       d="M 6.7897192,289.15764 H 11.27497 c 0.108072,0 0,-0.10099 0,0 v 2.92742 c 0,0.0555 0.04867,0.10099 0.108072,0.10099 h 2.749727 c 0.05948,0 0.108082,-0.10099 0.108082,-0.10099 l 0.01676,-2.96083 c 0.151879,9.9e-4 3.481026,0.002 3.481248,0.0334 l 0.0209,2.92742 c 4.04e-4,0.0555 0.04867,0.10099 0.108082,0.10099 h 2.805429 c 0.05948,0 0.02504,-0.0454 0.02525,-0.10099 l 0.01202,-2.92742 c 4.34e-4,-0.10099 0.05706,-0.0594 0.165158,-0.0582 l 3.167937,0.0348 c 0.108072,10e-4 0.189061,-0.0186 0.189061,0.0824 l -6.1e-5,2.89202 c 0,0.0555 0.03676,0.0776 0.09614,0.0773 l 2.947148,-0.0114 c 0.05948,-2.2e-4 0.001,-0.0334 0.002,-0.089 l 0.01181,-2.91565 c 4.14e-4,-0.10099 0.104406,-0.0471 0.212468,-0.0476 l 4.485319,-0.0149 c 0.0595,-2.1e-4 0.10693,0.0604 0.10813,-0.0509 l 0.0186,-1.75657 c 0.001,-0.10099 0.0148,-0.19274 0.12292,-0.19261 l 3.2045,0.004 c 0.0595,6e-5 0.0961,-0.15169 0.0961,-0.20725 l 6.6e-4,-2.36716 c 2e-5,-0.0555 -0.0487,-0.10139 -0.10807,-0.10099 l -3.17565,0.0236 c -0.10808,8e-4 -0.12791,-0.005 -0.12888,-0.10626 l -0.0304,-3.1453 c -9.9e-4,-0.10099 0.13134,-0.16524 0.13134,-0.16524 l 3.19125,-0.0118 c 0.0595,-2.2e-4 0.10636,0.0679 0.10792,-0.20725 l 0.0129,-2.28447 c 3.2e-4,-0.0555 -0.037,-0.17163 -0.0963,-0.17184 l -3.13718,-0.0119 c -0.10809,-4e-4 -0.16688,-0.0997 -0.16789,-0.20065 l -0.0167,-1.61512 c -5.8e-4,-0.0555 0.0266,-0.10099 -0.0328,-0.10099 h -4.710715 c -0.108072,0 -0.09997,0.10099 -0.100175,0 l -0.0091,-2.92742 c -1.52e-4,-0.0555 -0.04019,-0.10099 -0.09967,-0.10099 h -2.816476 c -0.05948,0 -0.09957,0.0454 -0.09977,0.10099 l -0.0091,2.92742 c -2.93e-4,0.10099 0,0 0,0 h -3.385212 c -0.108082,0 -0.125017,0.10099 -0.12531,0 l -0.0091,-2.92742 c -1.51e-4,-0.0555 -0.06534,-0.10099 -0.124714,-0.10099 h -2.732953 c -0.05948,0 -0.07473,0.0454 -0.07473,0.10099 l -2.1e-5,2.92742 c 0,0.10099 0.108082,0 0,0 h -3.418587 c -0.04958,0 -0.08271,0.10158 -0.08351,6.8e-4 l -0.02504,-2.94409 c -4.75e-4,-0.0555 -0.0061,-0.10136 -0.06635,-0.10099 l -2.8158,0.016 c -0.05948,3.4e-4 -0.108072,0.0455 -0.108072,0.10099 v 2.92742 c 0,0.10099 0.108072,0 0,0 H 6.7883142 c -0.05948,0 -0.108082,0.0455 -0.108082,0.10099 v 1.61513 c 0,0.10099 0.108062,0.12873 0,0.12996 l -3.13427,0.0353 c -0.05948,6.8e-4 -0.10787,0.0218 -0.10787,0.0774 l -2.22e-4,2.56784 c 0,0.0555 0.04867,0.11282 0.108082,0.11282 h 3.13427 c 0.108072,0 0.01252,0.11156 0.01212,0.21252 l -0.01212,2.92095 c -4.14e-4,0.10099 0.108264,0.1295 1.82e-4,0.1299 l -3.134452,0.0118 c -0.05948,2.5e-4 -0.119624,0.0691 -0.119654,0.12459 l -8.59e-4,2.44979 c -2e-5,0.0555 0.04877,0.17183 0.108203,0.17183 l 3.122466,4e-5 c 0.108072,0 0.01141,0.0998 0.01212,0.20071 l 0.01202,1.75682 c 3.84e-4,0.0555 0.04867,0.10099 0.108083,0.10099"
       id="path958" />
  </g>
</svg>
