<?xml version="1.0" encoding="UTF-8" standalone="no"?>
<svg
   width="238.596mm"
   height="314.933mm"
   viewBox="18.900002 -34.609493 238.595795 314.932892"
   version="1.1"
   id="svg1034"
   sodipodi:docname="füsse.svg"
   inkscape:version="1.1 (c68e22c387, 2021-05-23)"
   xmlns:inkscape="http://www.inkscape.org/namespaces/inkscape"
   xmlns:sodipodi="http://sodipodi.sourceforge.net/DTD/sodipodi-0.dtd"
   xmlns="http://www.w3.org/2000/svg"
   xmlns:svg="http://www.w3.org/2000/svg">
  <defs
     id="defs1038" />
  <sodipodi:namedview
     id="namedview1036"
     pagecolor="#ffffff"
     bordercolor="#666666"
     borderopacity="1.0"
     inkscape:pageshadow="2"
     inkscape:pageopacity="0.0"
     inkscape:pagecheckerboard="0"
     inkscape:document-units="mm"
     showgrid="false"
     inkscape:snap-global="false"
     inkscape:zoom="4.8592873"
     inkscape:cx="243.24555"
     inkscape:cy="587.63761"
     inkscape:window-width="1920"
     inkscape:window-height="1017"
     inkscape:window-x="-8"
     inkscape:window-y="-8"
     inkscape:window-maximized="1"
     inkscape:current-layer="svg1034" />
  <path
     style="fill:none;stroke:#0000ff;stroke-width:0.0504915mm"
     d="m 76.315225,112.34456 0.01361,12.6308 c 0.640798,-0.006 5.14688,0.008 5.577895,0.007 0,0 0.138186,-0.009 0.138548,0.0918 l 0.0106,2.93094 c 2.08e-4,0.0555 0.07554,0.10666 0.131128,0.10684 l 2.651898,0.009 c 0.04868,1.5e-4 0.09744,-0.15763 0.09795,-0.21313 l 0.02858,-2.8449 c 0,0 0.09745,0.002 0.198466,0.002 l 3.193578,0.0112 c 0.100973,3.3e-4 0.16492,-0.0835 0.165336,0.0175 l 0.01182,2.91078 c 0,0 0.145829,0.12493 0.201377,0.12444 l 2.651666,-0.0228 c 0.05555,-5e-4 0.100974,-0.0455 0.100974,-0.10099 v -2.9285 c 0,-0.10099 -0.100974,0 0,0 h 3.685889 c 0.05555,0 0.100481,-0.0455 0.100974,-0.10099 l 0.01658,-1.71596 c 9.56e-4,-0.10099 -0.11797,-0.18367 -0.01698,-0.18367 l 2.911813,3e-5 c 0.05555,0 0.136075,0.0771 0.134257,-0.18453 l -0.01556,-2.2446 c -3.71e-4,-0.0555 -0.02897,-0.23458 -0.08452,-0.23462 l -2.89511,-3e-5 c -0.100989,0 -0.01667,-0.24968 -0.01726,-0.35067 l -0.01676,-2.86089 c -5.86e-4,-0.10099 -0.117939,-0.16697 -0.01698,-0.16697 h 2.928517 c 0.05555,0 0.100788,-0.14564 0.100881,-0.20117 l 0.001,-2.35511 c 3e-5,-0.0555 -0.04555,-0.14081 -0.101051,-0.14081 h -2.928501 c -0.100989,0 0.01735,-0.11612 0.01635,-0.21711 l -0.01676,-1.66578 c -5.7e-4,-0.0555 -0.04544,-0.10059 -0.100974,-0.101 l -3.518934,-0.0253 c -0.100989,-7.4e-4 5.85e-4,0.10098 0,0 l -0.01667,-2.90344 c -3.08e-4,-0.0555 -0.06214,-0.10019 -0.117677,-0.101 l -2.545268,-0.0341 c -0.05555,-7.5e-4 -0.200438,0.0957 -0.201116,0.15122 l -0.03353,2.82836 c -0.001,0.10099 -0.09926,0.0838 -0.200252,0.0838 l -3.111418,4.2e-4 c -0.100974,0 -0.149728,0.1012 -0.150282,2.2e-4 l -0.01677,-2.94518 c -3.23e-4,-0.0555 -0.184473,-0.10089 -0.184473,-0.10089 l -2.77899,0.0164 c -0.05554,3.1e-4 -0.100981,0.0455 -0.100981,0.10099 v 2.9285 c 0,0.10099 0.100981,0 0,0 -1.93506,-0.005 -4.010747,-0.0118 -5.883148,-0.008"
     id="path942"
     sodipodi:nodetypes="cccccccccccccccssssccsscccsccssccssccccccccccccccccsscc" />
  <rect
     style="fill:none;stroke:#000000;stroke-width:0.11;stroke-linejoin:bevel;stroke-miterlimit:4;stroke-dasharray:none"
     id="rect1702"
     width="18.989655"
     height="12.625619"
     x="76.293167"
     y="112.26804" />
</svg>
