<?xml version="1.0" encoding="UTF-8" standalone="no"?>
<svg
   width="121.880mm"
   height="277.199mm"
   viewBox="18.900002 -34.609493 121.879601 277.198822"
   version="1.1"
   id="svg2395"
   sodipodi:docname="Schuhgelenk.svg"
   inkscape:version="1.1 (c68e22c387, 2021-05-23)"
   xmlns:inkscape="http://www.inkscape.org/namespaces/inkscape"
   xmlns:sodipodi="http://sodipodi.sourceforge.net/DTD/sodipodi-0.dtd"
   xmlns="http://www.w3.org/2000/svg"
   xmlns:svg="http://www.w3.org/2000/svg">
  <defs
     id="defs2399" />
  <sodipodi:namedview
     id="namedview2397"
     pagecolor="#ffffff"
     bordercolor="#666666"
     borderopacity="1.0"
     inkscape:pageshadow="2"
     inkscape:pageopacity="0.0"
     inkscape:pagecheckerboard="0"
     inkscape:document-units="mm"
     showgrid="false"
     inkscape:zoom="2.0139776"
     inkscape:cx="117.67757"
     inkscape:cy="962.02659"
     inkscape:window-width="1920"
     inkscape:window-height="1017"
     inkscape:window-x="-8"
     inkscape:window-y="-8"
     inkscape:window-maximized="1"
     inkscape:current-layer="svg2395" />
  <path
     id="path2387"
     style="fill:#000000;stroke:#000000;stroke-width:0.247058mm;fill-opacity:1"
     d="M 5.34375 927.79492 C 5.1359136 927.79492 4.9667969 927.96595 4.9667969 928.17383 L 4.9667969 984.86523 C 4.9667969 984.96728 5.0081403 985.06295 5.0761719 985.13477 L 61.767578 1041.8281 C 61.839389 1041.8962 61.9351 1041.9375 62.037109 1041.9375 L 99.832031 1041.9375 C 100.03994 1041.9375 100.21094 1041.7665 100.21094 1041.5586 L 100.21094 1036.2676 L 111.16992 1036.2676 C 111.37783 1036.2676 111.54883 1036.0985 111.54883 1035.8906 L 111.54883 1024.5508 C 111.54883 1024.3429 111.37783 1024.1738 111.16992 1024.1738 L 100.21094 1024.1738 L 100.21094 1013.5898 L 111.16992 1013.5898 C 111.37783 1013.5898 111.54883 1013.4208 111.54883 1013.2129 L 111.54883 1001.875 C 111.54883 1001.6671 111.37783 1001.4961 111.16992 1001.4961 L 100.21094 1001.4961 L 100.21094 990.91406 L 111.16992 990.91406 C 111.37783 990.91406 111.54883 990.74307 111.54883 990.53516 L 111.54883 979.19727 C 111.54883 978.98939 111.37783 978.81836 111.16992 978.81836 L 100.21094 978.81836 L 100.21094 968.23633 L 111.16992 968.23633 C 111.37783 968.23633 111.54883 968.0653 111.54883 967.85742 L 111.54883 956.51953 C 111.54883 956.31166 111.37783 956.14258 111.16992 956.14258 L 100.21094 956.14258 L 100.21094 945.55859 L 111.16992 945.55859 C 111.37783 945.55859 111.54883 945.38955 111.54883 945.18164 L 111.54883 933.8418 C 111.54883 933.63392 111.37783 933.46484 111.16992 933.46484 L 100.21094 933.46484 L 100.21094 928.17383 C 100.21094 927.96595 100.03994 927.79492 99.832031 927.79492 L 5.34375 927.79492 z M 40.683594 952.63672 C 42.768658 952.63672 44.809484 953.23473 46.558594 954.36133 C 48.312609 955.48801 49.705635 957.09467 50.570312 958.99219 C 51.434665 960.88966 51.741741 962.99413 51.445312 965.05469 C 51.148865 967.1202 50.264094 969.05258 48.900391 970.62891 C 47.531789 972.20025 45.742271 973.35143 43.746094 973.93945 C 41.745018 974.52747 39.62217 974.52747 37.621094 973.93945 C 35.624995 973.35147 33.835406 972.20025 32.466797 970.62891 C 31.10309 969.05258 30.218304 967.1202 29.921875 965.05469 C 29.625428 962.99413 29.932198 960.8897 30.796875 958.99219 C 31.661556 957.09471 33.054586 955.48801 34.808594 954.36133 C 36.557636 953.23473 38.598529 952.63672 40.683594 952.63672 z "
     transform="matrix(0.26458316,0,0,0.26458316,18.899844,-34.609493)" />
</svg>
